<svg width="93" height="34" viewBox="0 0 93 34" fill="none" xmlns="http://www.w3.org/2000/svg">
<path d="M86.7924 21.8825V25.8499H93.0001V21.113C93.0001 19.5742 92.8373 18.1555 92.5351 16.9051C92.2561 15.6548 91.7678 14.5487 91.0471 13.635C90.3496 12.7213 89.4196 12.024 88.2106 11.5191C87.0482 11.0141 85.5834 10.7496 83.7932 10.7496C83.1887 10.7496 82.5377 10.8217 81.8868 10.966C81.259 11.0862 80.7243 11.2065 80.3058 11.3507V0.506409L74.0981 1.54034V33.881H80.3058V16.6647C80.701 16.5445 81.1195 16.4483 81.5845 16.3521C82.0728 16.2319 82.6075 16.1838 83.1655 16.1838C84.5605 16.1838 85.4904 16.6166 86.0019 17.4822C86.5367 18.3479 86.7924 19.8146 86.7924 21.8825Z" fill="white"/>
<path d="M92.9981 33.9043L86.7207 33.3191V27.6526H92.9981V33.9043Z" fill="#FF7D1F"/>
<path fill-rule="evenodd" clip-rule="evenodd" d="M71.958 22.386C69.9818 24.3336 67.3314 25.5119 64.3787 25.5119C58.3338 25.5119 53.4281 20.4383 53.4281 14.1866C53.4281 7.9349 58.3338 2.86139 64.3787 2.86139C67.3546 2.86139 70.0516 4.08769 72.0278 6.08343L68.0753 10.1711C67.0989 9.23333 65.7969 8.65625 64.3322 8.65625C61.3097 8.65625 58.8685 11.181 58.8685 14.3068C58.8685 17.4327 61.3097 19.9574 64.3322 19.9574C65.7969 19.9574 67.0989 19.3804 68.0986 18.4186L71.958 22.386Z" fill="#FDAE40"/>
<path fill-rule="evenodd" clip-rule="evenodd" d="M71.958 30.6325C69.9818 32.5801 67.3314 33.7583 64.3787 33.7583C58.3338 33.7583 53.4281 28.6848 53.4281 22.4331C53.4281 16.1814 58.3338 11.1078 64.3787 11.1078C67.3546 11.1078 70.0516 12.3341 72.0278 14.3299L68.0986 18.4176C67.1221 17.4798 65.7969 16.9027 64.3322 16.9027C61.3097 16.9027 58.8685 19.4274 58.8685 22.5533C58.8685 25.6792 61.3097 28.2039 64.3322 28.2039C65.7969 28.2039 67.0989 27.6268 68.0986 26.665L71.958 30.6325Z" fill="#FF7D1F"/>
<path d="M51.2436 27.7714C50.6624 28.0118 50.0114 28.1801 49.2907 28.3244C48.5932 28.4446 47.9189 28.4927 47.2447 28.4927C45.8497 28.4927 44.9197 28.084 44.4548 27.2905C44.013 26.497 43.7805 25.415 43.7805 24.0684V16.1095H51.2204V10.7715H43.7805V4.11102L37.5729 5.14496V24.1646C37.5729 25.6314 37.6891 26.9538 37.9449 28.1561C38.2239 29.3584 38.6889 30.3923 39.3631 31.2579C40.0373 32.0995 40.9208 32.7487 42.0368 33.2296C43.1528 33.6865 44.5478 33.9269 46.245 33.9269C47.5702 33.9269 48.7094 33.8067 49.6162 33.5903C50.5229 33.3498 51.3599 33.0853 52.1039 32.7728L51.2436 27.7714Z" fill="white"/>
<path d="M25.2721 10.1713C23.9468 10.1713 22.6449 10.4358 21.3661 10.9408C20.1107 11.4457 19.0179 12.2152 18.0414 13.2251C17.065 14.2349 16.2745 15.4853 15.67 17.0001C15.0887 18.4909 14.7865 20.2462 14.7865 22.242C14.7865 23.9011 15.019 25.464 15.4607 26.8827C15.9257 28.3254 16.6465 29.5757 17.5764 30.6337C18.5529 31.6676 19.7619 32.4852 21.2034 33.0863C22.6681 33.6874 24.3886 34 26.3648 34C27.132 34 27.9225 33.9519 28.6897 33.8798C29.457 33.7836 30.1777 33.6874 30.852 33.5431C31.5494 33.4229 32.1772 33.2786 32.7352 33.1103C33.2932 32.942 33.7349 32.7737 34.0604 32.6054L33.2234 27.3876C32.5259 27.7002 31.6192 27.9647 30.5265 28.2051C29.4337 28.3975 28.341 28.5177 27.2018 28.5177C25.4348 28.5177 24.0166 28.133 22.9471 27.3636C21.9009 26.5941 21.2964 25.5361 21.1569 24.2137H35.2229C35.2461 23.877 35.2694 23.4923 35.3159 23.0595C35.3391 22.6026 35.3624 22.1939 35.3624 21.8091C35.3624 17.986 34.4556 15.1006 32.6654 13.1529C30.8287 11.1572 28.3875 10.1713 25.2721 10.1713ZM21.1569 19.8134C21.2499 19.2604 21.3661 18.7314 21.5289 18.2264C21.7149 17.6734 21.9939 17.2165 22.3194 16.8078C22.6449 16.399 23.0633 16.0864 23.5748 15.87C24.0631 15.6055 24.6676 15.4853 25.3651 15.4853C26.0858 15.4853 26.6903 15.6055 27.1553 15.87C27.6435 16.1345 28.062 16.4471 28.3643 16.8559C28.6897 17.2646 28.9222 17.7215 29.0617 18.2264C29.2245 18.7314 29.3175 19.2844 29.364 19.8134H21.1569Z" fill="white"/>
<path d="M6.37039 7.95892C6.50988 7.45398 6.71913 6.99712 6.99813 6.63644C7.30037 6.25172 7.69561 5.98723 8.2071 5.77082C8.74184 5.53037 9.36958 5.43419 10.1136 5.43419C10.6716 5.43419 11.276 5.50632 11.9038 5.65059C12.578 5.77082 13.1825 5.96318 13.7405 6.20363L14.9495 1.08203C14.4147 0.841578 13.6708 0.625174 12.6943 0.384723C11.7178 0.120227 10.6483 0 9.48583 0C6.34714 0 3.97568 0.865622 2.37146 2.57282C0.790485 4.30407 0 6.6124 0 9.5459V25.608H6.20764V16.0862H13.8568V10.7482H6.20764V9.61803C6.20764 9.04095 6.25414 8.48792 6.37039 7.95892Z" fill="white"/>
<path d="M0 33.9288L6.20764 33.3277V27.5328H0V33.9288Z" fill="#FF7D1F"/>
</svg>
